<svg   viewBox="0 0 48 48" fill="none" xmlns="http://www.w3.org/2000/svg">
<g clip-path="url(#clip0_1_202)">
<path d="M21.9944 25.6337L23.5436 23.0027C17.7014 25.7351 14.7437 27.5097 13.0028 29.0759L14.3437 29.6787C15.8817 28.6139 18.2704 27.397 21.9944 25.6337Z" fill="url(#paint0_linear_1_202)"/>
<path d="M33.9045 5.22241L35.7918 1.99988C15.2059 10.1182 3.67915 21.1266 4.51859 23.4872C4.63159 23.7656 4.7938 24.0213 4.99747 24.2421C5.88197 21.3069 16.0848 12.4393 33.9045 5.22241Z" fill="url(#paint1_linear_1_202)"/>
<path d="M24.9746 20.5182L26.6028 17.7351C17.2338 21.9999 12.5859 25.3633 10.4 27.7858L11.6394 28.3999C13.7803 26.4112 17.8366 23.8365 24.9746 20.5182Z" fill="url(#paint2_linear_1_202)"/>
<path d="M27.9493 15.4196L29.6676 12.49C16.676 18.1238 10.2704 23.5548 7.93803 26.4449C8.28732 26.6534 8.67605 26.8731 9.09859 27.1041C11.5887 24.4731 17.3127 20.1914 27.9493 15.4196Z" fill="url(#paint3_linear_1_202)"/>
<path d="M30.9296 10.321L32.7324 7.23932C16.1803 14.0844 7.63379 21.8365 5.83097 25.0252C6.11266 25.2506 6.44507 25.4928 6.82816 25.752C9.03098 22.7097 16.7155 16.3435 30.9296 10.321Z" fill="url(#paint4_linear_1_202)"/>
<path d="M29.2338 45.3802C27.8576 45.6569 26.4651 45.845 25.0648 45.9436C12.9972 37.6901 7.87605 32.7041 6.91831 30.0844L6.5183 28.9577C7.58308 31.4253 14.3437 36.9013 29.2338 45.3802ZM5.53802 26.2703L5.96619 27.4478C6.8845 29.983 13.6901 35.4816 31.431 44.8788C32.9915 44.4901 34.5465 44.0281 36.062 43.5041C14.1746 33.9943 6.60281 28.6309 5.53802 26.2703ZM8.58591 34.6478L8.91266 35.5379C9.47602 36.9966 10.125 38.4206 10.8563 39.8027C12.1055 41.8727 13.9352 43.5301 16.1183 44.5689C12.3718 40.3661 9.40844 36.6816 8.58591 34.6478ZM7.53801 31.7746L7.89858 32.7774C8.8338 35.3408 11.8422 39.0985 18.6648 45.4816C19.9353 45.7883 21.2343 45.962 22.5408 45.9999C13.7465 39.0929 8.55773 34.1971 7.53801 31.7746ZM4.5183 23.4872L5.03098 24.8901C5.89859 27.2957 13.938 32.5408 38.3042 42.7098C40.1408 42.0168 41.9042 41.2844 43.5324 40.5633C12.8901 30.2084 5.31267 25.6732 4.5183 23.4872Z" fill="url(#paint5_linear_1_202)"/>
</g>
<defs>
<linearGradient id="paint0_linear_1_202" x1="12.8225" y1="28.5407" x2="24.0789" y2="24.4393" gradientUnits="userSpaceOnUse">
<stop stop-color="#E1F2FA"/>
<stop offset="0.12" stop-color="#A5DBF1"/>
<stop offset="0.25" stop-color="#6EC5E9"/>
<stop offset="0.36" stop-color="#46B6E4"/>
<stop offset="0.45" stop-color="#2EACE0"/>
<stop offset="0.5" stop-color="#25A9DF"/>
<stop offset="0.62" stop-color="#21A0D6"/>
<stop offset="0.83" stop-color="#1888BE"/>
<stop offset="1" stop-color="#0D6EA4"/>
</linearGradient>
<linearGradient id="paint1_linear_1_202" x1="3.94012" y1="20.4506" x2="38.2044" y2="9.31765" gradientUnits="userSpaceOnUse">
<stop stop-color="#E1F2FA"/>
<stop offset="0.12" stop-color="#A5DBF1"/>
<stop offset="0.25" stop-color="#6EC5E9"/>
<stop offset="0.36" stop-color="#46B6E4"/>
<stop offset="0.45" stop-color="#2EACE0"/>
<stop offset="0.5" stop-color="#25A9DF"/>
<stop offset="0.62" stop-color="#21A0D6"/>
<stop offset="0.83" stop-color="#1888BE"/>
<stop offset="1" stop-color="#0D6EA4"/>
</linearGradient>
<linearGradient id="paint2_linear_1_202" x1="10.1229" y1="26.5819" x2="27.5771" y2="20.4624" gradientUnits="userSpaceOnUse">
<stop stop-color="#E1F2FA"/>
<stop offset="0.12" stop-color="#A5DBF1"/>
<stop offset="0.25" stop-color="#6EC5E9"/>
<stop offset="0.36" stop-color="#46B6E4"/>
<stop offset="0.45" stop-color="#2EACE0"/>
<stop offset="0.5" stop-color="#25A9DF"/>
<stop offset="0.62" stop-color="#21A0D6"/>
<stop offset="0.83" stop-color="#1888BE"/>
<stop offset="1" stop-color="#0D6EA4"/>
</linearGradient>
<linearGradient id="paint3_linear_1_202" x1="7.56638" y1="24.6129" x2="31.0828" y2="16.5437" gradientUnits="userSpaceOnUse">
<stop stop-color="#E1F2FA"/>
<stop offset="0.12" stop-color="#A5DBF1"/>
<stop offset="0.25" stop-color="#6EC5E9"/>
<stop offset="0.36" stop-color="#46B6E4"/>
<stop offset="0.45" stop-color="#2EACE0"/>
<stop offset="0.5" stop-color="#25A9DF"/>
<stop offset="0.62" stop-color="#21A0D6"/>
<stop offset="0.83" stop-color="#1888BE"/>
<stop offset="1" stop-color="#0D6EA4"/>
</linearGradient>
<linearGradient id="paint4_linear_1_202" x1="5.37087" y1="22.5963" x2="34.6227" y2="12.7869" gradientUnits="userSpaceOnUse">
<stop stop-color="#E1F2FA"/>
<stop offset="0.12" stop-color="#A5DBF1"/>
<stop offset="0.25" stop-color="#6EC5E9"/>
<stop offset="0.36" stop-color="#46B6E4"/>
<stop offset="0.45" stop-color="#2EACE0"/>
<stop offset="0.5" stop-color="#25A9DF"/>
<stop offset="0.62" stop-color="#21A0D6"/>
<stop offset="0.83" stop-color="#1888BE"/>
<stop offset="1" stop-color="#0D6EA4"/>
</linearGradient>
<linearGradient id="paint5_linear_1_202" x1="9.57746" y1="37.4027" x2="38.5408" y2="26.8619" gradientUnits="userSpaceOnUse">
<stop stop-color="#DD224A"/>
<stop offset="0.06" stop-color="#C12348"/>
<stop offset="0.13" stop-color="#A62346"/>
<stop offset="0.2" stop-color="#962445"/>
<stop offset="0.25" stop-color="#902445"/>
<stop offset="1" stop-color="#DD224A"/>
</linearGradient>
<clipPath id="clip0_1_202">
<rect width="39.0535" height="44" fill="white" transform="translate(4.47324 1.99988)"/>
</clipPath>
</defs>
</svg>
