<svg viewBox="0 0 132 58" fill="none" xmlns="http://www.w3.org/2000/svg">
<path d="M13.3 56.15C12.4667 56.15 11.5167 56.1167 10.45 56.05C9.38333 56.0167 8.51667 55.9667 7.85 55.9L1.75 52.95L4.25 46.45L12.1 49C16.5333 49 18.75 47.15 18.75 43.45V42.5L18.25 42.25C17.7833 42.7167 17.0333 43.2 16 43.7C15 44.1667 13.4167 44.4 11.25 44.4C9.68333 44.4 8.16667 44.0167 6.7 43.25C5.23333 42.45 4.03333 41.1833 3.1 39.45C2.2 37.7167 1.75 35.4667 1.75 32.7C1.75 29.6 2.21667 27.1167 3.15 25.25C4.08333 23.35 5.26667 21.9667 6.7 21.1C8.16667 20.2333 9.68333 19.8 11.25 19.8C12.9833 19.8 14.4 20.05 15.5 20.55C16.6333 21.05 17.3833 21.5333 17.75 22V20.35H26.8L27.3 23.35L26.75 26.35L26.8 43.95C26.8 46.8167 26.2333 49.15 25.1 50.95C24 52.75 22.4333 54.0667 20.4 54.9C18.4 55.7333 16.0333 56.15 13.3 56.15ZM15 37.35C15.6 37.35 16.15 37.2667 16.65 37.1C17.15 36.9333 17.5167 36.7833 17.75 36.65V27.3C17.6167 27.2 17.3667 27.1 17 27C16.6333 26.9 16.1333 26.85 15.5 26.85C14.2 26.85 13.1667 27.2667 12.4 28.1C11.6333 28.9333 11.25 30.2833 11.25 32.15C11.25 33.9833 11.6167 35.3167 12.35 36.15C13.0833 36.95 13.9667 37.35 15 37.35ZM29.8586 44V28.35L28.8086 23.35L29.8586 20.35H36.6586L37.6586 21.5C37.6586 21.5 37.8919 21.3667 38.3586 21.1C38.8253 20.8 39.4753 20.5167 40.3086 20.25C41.1753 19.9833 42.1753 19.85 43.3086 19.85C43.9753 19.85 44.6419 19.9 45.3086 20C45.9753 20.1 46.4919 20.2333 46.8586 20.4L50.1086 23.15L46.8586 29.55L40.2586 26.8L38.7586 27.3V44H29.8586ZM55.0996 18.95L48.7496 12.55L55.0996 6.2L61.4496 12.55L55.0996 18.95ZM50.5996 44V27.45L49.5496 23.45L50.5496 20.4H59.5996V44H50.5996ZM61.6992 23.45L63.2492 20.4H70.6992V22.55L71.1492 22.85C71.5159 22.5167 72.0159 22.1333 72.6492 21.7C73.3159 21.2333 74.1159 20.8167 75.0492 20.45C75.9826 20.0833 77.0326 19.9 78.1992 19.9C81.6659 19.9 84.1492 21.05 85.6492 23.35C86.2492 22.5167 87.1492 21.7333 88.3492 21C89.5826 20.2333 91.2826 19.85 93.4492 19.85C96.4492 19.85 98.6992 20.7 100.199 22.4C101.699 24.1 102.449 26.4833 102.449 29.55V35.95L103.499 40.95L102.449 44H93.4492V30.85C93.4492 29.5833 93.1659 28.6167 92.5992 27.95C92.0659 27.25 91.2159 26.9 90.0492 26.9C89.2826 26.9 88.6159 27.1833 88.0492 27.75C87.4826 28.3167 87.1992 29.0333 87.1992 29.9V44H78.1992V30.9C78.1992 29.6333 77.9159 28.6667 77.3492 28C76.8159 27.3 75.9659 26.95 74.7992 26.95L71.6992 27.9V44H62.6992V28.95L61.6992 23.45ZM117.05 44.5C112.983 44.5 109.833 43.5333 107.6 41.6C105.367 39.6667 104.25 36.5333 104.25 32.2C104.25 27.8333 105.367 24.7 107.6 22.8C109.833 20.8667 112.983 19.9 117.05 19.9C121.217 19.9 124.367 20.8667 126.5 22.8C128.667 24.7 129.75 27.8333 129.75 32.2C129.75 36.5333 128.667 39.6667 126.5 41.6C124.367 43.5333 121.217 44.5 117.05 44.5ZM117.05 38C118.417 38 119.367 37.5 119.9 36.5C120.433 35.4667 120.7 34.0333 120.7 32.2C120.7 30.3333 120.433 28.9 119.9 27.9C119.367 26.9 118.417 26.4 117.05 26.4C115.65 26.4 114.667 26.9 114.1 27.9C113.567 28.9 113.3 30.3333 113.3 32.2C113.3 34.0333 113.567 35.4667 114.1 36.5C114.667 37.5 115.65 38 117.05 38Z" fill="#2972FF"/>
</svg>
