<svg   viewBox="0 0 48 48" fill="none" xmlns="http://www.w3.org/2000/svg">
<g clip-path="url(#clip0_1_114)">
<path d="M11.6186 31.5011C11.3002 33.2503 12.1952 33.8133 13.7497 33.8133C14.8515 33.8133 16.0876 33.3952 16.3366 32.2919C16.6385 30.9819 14.684 30.7313 12.7944 30.1246C10.9047 29.5179 9.03927 28.564 9.65807 25.8352C10.3946 22.5873 13.7693 21.3149 16.4045 21.3149C19.1982 21.3149 21.687 22.7533 20.9445 26.1084H17.2875C17.6527 24.7501 16.5509 24.3154 15.4311 24.3154C14.6432 24.3154 13.5943 24.6052 13.3739 25.5862C13.1128 26.7317 15.0915 26.9446 16.9962 27.5483C18.9009 28.152 20.703 29.1496 20.0962 31.8361C19.2405 35.6093 15.9382 36.8168 12.8517 36.8168C9.62487 36.8168 7.11645 35.318 7.95561 31.5071L11.6186 31.5011Z" fill="#005EA1"/>
<path d="M36.9292 21.6274H40.5862L37.216 36.4983H33.556L36.9292 21.6274Z" fill="#005EA1"/>
<path d="M23.5978 21.6289H30.1646C32.5931 21.5882 35.097 22.2523 34.3906 25.3568C34.0888 26.6895 33.0957 27.7717 31.8626 28.3558C33.2541 28.8086 33.8669 30.1896 33.4851 31.8754C32.6851 35.4177 29.982 36.5044 26.9725 36.5044H20.2276L23.5978 21.6289ZM25.9281 27.4819H28.7595C29.3889 27.4819 30.3337 27.1257 30.5706 26.0647C30.8076 25.0037 30.1707 24.6264 29.404 24.6264H26.5741L25.9281 27.4819ZM24.5864 33.3953H27.5189C28.678 33.3953 29.5821 32.9561 29.8628 31.7351C30.1646 30.422 29.3934 29.9843 28.2916 29.9843H25.3606L24.5864 33.3953Z" fill="#005EA1"/>
<path d="M45.6951 15.6578C43.6727 10.2878 32.1026 9.67502 19.8563 14.2874C11.1221 17.5776 4.40428 22.6382 2 27.2204C5.32041 23.749 10.6904 20.3381 17.1667 17.8961C29.4145 13.2822 40.9832 13.8965 43.0056 19.268C43.5882 20.8075 43.318 22.5718 42.3506 24.4162C45.3118 21.3251 46.6475 18.1874 45.6951 15.6623" fill="#EE303C"/>
</g>
<defs>
<clipPath id="clip0_1_114">
<rect width="44" height="25.6215" fill="white" transform="translate(2 11.1892)"/>
</clipPath>
</defs>
</svg>
